<svg width="19" height="20" viewBox="0 0 19 20" fill="none" xmlns="http://www.w3.org/2000/svg">
<g filter="url(#filter0_d_0_1)">
<path d="M3.2793 16H2.65186L1.21387 14.3813L0.852539 14.7671V16H0.369141V12.3647H0.852539V14.2617L2.61768 12.3647H3.20361L1.58008 14.0737L3.2793 16ZM6.89502 14.186C6.89502 14.5164 6.82259 14.8159 6.67773 15.0845C6.53451 15.353 6.34326 15.5614 6.104 15.7095C5.93799 15.812 5.75244 15.8861 5.54736 15.9316C5.34391 15.9772 5.07536 16 4.7417 16H3.82373V12.3647H4.73193C5.08675 12.3647 5.36833 12.3908 5.57666 12.4429C5.78662 12.4933 5.96403 12.5633 6.10889 12.6528C6.35628 12.8075 6.54915 13.0133 6.6875 13.2705C6.82585 13.5277 6.89502 13.8328 6.89502 14.186ZM6.38965 14.1787C6.38965 13.8939 6.34001 13.6538 6.24072 13.4585C6.14144 13.2632 5.99333 13.1094 5.79639 12.9971C5.65316 12.9157 5.50098 12.8595 5.33984 12.8286C5.17871 12.7961 4.98584 12.7798 4.76123 12.7798H4.30713V15.585H4.76123C4.99398 15.585 5.19661 15.5679 5.36914 15.5337C5.54329 15.4995 5.7028 15.436 5.84766 15.3433C6.02832 15.2277 6.16341 15.0755 6.25293 14.8867C6.34408 14.6979 6.38965 14.4619 6.38965 14.1787ZM10.7158 16H9.28027V15.6289H9.75635V12.7358H9.28027V12.3647H10.7158V12.7358H10.2397V15.6289H10.7158V16ZM14.1313 12.7944H12.8325V16H12.3491V12.7944H11.0503V12.3647H14.1313V12.7944Z" fill="#0284C7"/>
</g>
<g filter="url(#filter1_d_0_1)">
<path fill-rule="evenodd" clip-rule="evenodd" d="M3.37026 10.6253C3.27941 10.6253 3.19228 10.589 3.12803 10.5243C3.06379 10.4596 3.0277 10.3718 3.0277 10.2803V3.38005C3.0277 3.28855 3.06379 3.2008 3.12803 3.13609C3.19228 3.07139 3.27941 3.03504 3.37026 3.03504H9.70773C9.84401 3.03504 9.97471 2.98052 10.0711 2.88346C10.1674 2.78641 10.2216 2.65478 10.2216 2.51752C10.2216 2.38027 10.1674 2.24863 10.0711 2.15158C9.97471 2.05452 9.84401 2 9.70773 2H3.37026C3.00685 2 2.65831 2.1454 2.40134 2.40421C2.14437 2.66302 2 3.01404 2 3.38005V10.2803C2 10.6463 2.14437 10.9974 2.40134 11.2562C2.65831 11.515 3.00685 11.6604 3.37026 11.6604H10.2216C10.585 11.6604 10.9335 11.515 11.1905 11.2562C11.4475 10.9974 11.5918 10.6463 11.5918 10.2803V8.03774C11.5918 7.90048 11.5377 7.76885 11.4413 7.67179C11.345 7.57474 11.2143 7.52022 11.078 7.52022C10.9417 7.52022 10.811 7.57474 10.7146 7.67179C10.6183 7.76885 10.5641 7.90048 10.5641 8.03774V10.2803C10.5641 10.3718 10.528 10.4596 10.4638 10.5243C10.3996 10.589 10.3124 10.6253 10.2216 10.6253H3.37026ZM12.1262 4.5393C12.217 4.44119 12.2664 4.31144 12.2641 4.17736C12.2617 4.04329 12.2078 3.91537 12.1136 3.82055C12.0195 3.72573 11.8925 3.67142 11.7594 3.66905C11.6262 3.66669 11.4974 3.71646 11.4 3.80787L7.59204 7.64235L6.30879 6.30646C6.26197 6.25719 6.20594 6.21772 6.14393 6.19033C6.08192 6.16294 6.01514 6.14816 5.94743 6.14685C5.87973 6.14554 5.81244 6.15772 5.74943 6.18269C5.68641 6.20766 5.62892 6.24493 5.58025 6.29235C5.53159 6.33977 5.49271 6.39641 5.46585 6.45902C5.43899 6.52162 5.42469 6.58896 5.42375 6.65715C5.42282 6.72534 5.43528 6.79305 5.46042 6.85638C5.48555 6.9197 5.52287 6.9774 5.57022 7.02616L7.21659 8.74018C7.26396 8.78966 7.32064 8.82915 7.38333 8.85632C7.44602 8.8835 7.51345 8.89783 7.5817 8.89847C7.64994 8.89911 7.71763 8.88606 7.78081 8.86007C7.84399 8.83407 7.9014 8.79566 7.94968 8.74708L12.1262 4.5393Z" fill="#0284C7"/>
</g>
<defs>
<filter id="filter0_d_0_1" x="0.369141" y="12.3647" width="17.7622" height="7.63525" filterUnits="userSpaceOnUse" color-interpolation-filters="sRGB">
<feFlood flood-opacity="0" result="BackgroundImageFix"/>
<feColorMatrix in="SourceAlpha" type="matrix" values="0 0 0 0 0 0 0 0 0 0 0 0 0 0 0 0 0 0 127 0" result="hardAlpha"/>
<feOffset dx="2" dy="2"/>
<feGaussianBlur stdDeviation="1"/>
<feComposite in2="hardAlpha" operator="out"/>
<feColorMatrix type="matrix" values="0 0 0 0 0 0 0 0 0 0 0 0 0 0 0 0 0 0 0.25 0"/>
<feBlend mode="normal" in2="BackgroundImageFix" result="effect1_dropShadow_0_1"/>
<feBlend mode="normal" in="SourceGraphic" in2="effect1_dropShadow_0_1" result="shape"/>
</filter>
<filter id="filter1_d_0_1" x="0" y="0" width="18.2642" height="17.6604" filterUnits="userSpaceOnUse" color-interpolation-filters="sRGB">
<feFlood flood-opacity="0" result="BackgroundImageFix"/>
<feColorMatrix in="SourceAlpha" type="matrix" values="0 0 0 0 0 0 0 0 0 0 0 0 0 0 0 0 0 0 127 0" result="hardAlpha"/>
<feOffset dx="2" dy="2"/>
<feGaussianBlur stdDeviation="2"/>
<feComposite in2="hardAlpha" operator="out"/>
<feColorMatrix type="matrix" values="0 0 0 0 0 0 0 0 0 0 0 0 0 0 0 0 0 0 0.25 0"/>
<feBlend mode="normal" in2="BackgroundImageFix" result="effect1_dropShadow_0_1"/>
<feBlend mode="normal" in="SourceGraphic" in2="effect1_dropShadow_0_1" result="shape"/>
</filter>
</defs>
</svg>
