<svg width="411" height="62" viewBox="0 0 411 62" fill="none" xmlns="http://www.w3.org/2000/svg">
<rect width="411" height="62" fill="none"/>
<g clip-path="url(#clip0_0_1)">
<g filter="url(#filter0_d_0_1)">
<path fill-rule="evenodd" clip-rule="evenodd" d="M14.9375 49.7188C14.4982 49.7188 14.077 49.5443 13.7664 49.2336C13.4557 48.923 13.2813 48.5018 13.2813 48.0625V14.9375C13.2813 14.4982 13.4557 14.077 13.7664 13.7664C14.077 13.4557 14.4982 13.2812 14.9375 13.2812H45.5781C46.237 13.2812 46.8689 13.0195 47.3348 12.5536C47.8008 12.0877 48.0625 11.4558 48.0625 10.7969C48.0625 10.138 47.8008 9.50607 47.3348 9.04016C46.8689 8.57425 46.237 8.3125 45.5781 8.3125H14.9375C13.1804 8.3125 11.4953 9.01049 10.2529 10.2529C9.01049 11.4953 8.3125 13.1804 8.3125 14.9375V48.0625C8.3125 49.8196 9.01049 51.5047 10.2529 52.7471C11.4953 53.9895 13.1804 54.6875 14.9375 54.6875H48.0625C49.8196 54.6875 51.5047 53.9895 52.7471 52.7471C53.9895 51.5047 54.6875 49.8196 54.6875 48.0625V37.2969C54.6875 36.638 54.4258 36.0061 53.9598 35.5402C53.4939 35.0742 52.862 34.8125 52.2031 34.8125C51.5442 34.8125 50.9123 35.0742 50.4464 35.5402C49.9805 36.0061 49.7188 36.638 49.7188 37.2969V48.0625C49.7188 48.5018 49.5443 48.923 49.2337 49.2336C48.923 49.5443 48.5018 49.7188 48.0625 49.7188H14.9375ZM57.2713 20.5025C57.7101 20.0315 57.949 19.4086 57.9376 18.765C57.9263 18.1214 57.6656 17.5073 57.2104 17.0521C56.7552 16.5969 56.1411 16.3362 55.4975 16.3249C54.8539 16.3135 54.231 16.5524 53.76 16.9913L35.3491 35.3988L29.1448 28.9858C28.9185 28.7493 28.6476 28.5598 28.3477 28.4283C28.0479 28.2968 27.725 28.2259 27.3977 28.2196C27.0704 28.2133 26.745 28.2718 26.4404 28.3917C26.1357 28.5115 25.8577 28.6904 25.6225 28.9181C25.3872 29.1457 25.1992 29.4176 25.0693 29.7182C24.9395 30.0187 24.8703 30.342 24.8658 30.6693C24.8613 30.9967 24.9215 31.3217 25.0431 31.6257C25.1646 31.9297 25.345 32.2067 25.5739 32.4408L33.5339 40.669C33.7629 40.9065 34.037 41.0961 34.34 41.2265C34.6431 41.357 34.9692 41.4258 35.2991 41.4289C35.6291 41.432 35.9563 41.3693 36.2618 41.2445C36.5673 41.1197 36.8448 40.9353 37.0783 40.7021L57.2713 20.5025Z" fill="#0284C7"/>
</g>
</g>
<g filter="url(#filter1_d_0_1)">
<path d="M78.4062 41H75.3945L68.4922 33.2305L66.7578 35.082V41H64.4375V23.5508H66.7578V32.6562L75.2305 23.5508H78.043L70.25 31.7539L78.4062 41ZM90.9805 34.6836H81.3359C81.3359 35.4883 81.457 36.1914 81.6992 36.793C81.9414 37.3867 82.2734 37.875 82.6953 38.2578C83.1016 38.6328 83.582 38.9141 84.1367 39.1016C84.6992 39.2891 85.3164 39.3828 85.9883 39.3828C86.8789 39.3828 87.7734 39.207 88.6719 38.8555C89.5781 38.4961 90.2227 38.1445 90.6055 37.8008H90.7227V40.2031C89.9805 40.5156 89.2227 40.7773 88.4492 40.9883C87.6758 41.1992 86.8633 41.3047 86.0117 41.3047C83.8398 41.3047 82.1445 40.7188 80.9258 39.5469C79.707 38.3672 79.0977 36.6953 79.0977 34.5312C79.0977 32.3906 79.6797 30.6914 80.8438 29.4336C82.0156 28.1758 83.5547 27.5469 85.4609 27.5469C87.2266 27.5469 88.5859 28.0625 89.5391 29.0938C90.5 30.125 90.9805 31.5898 90.9805 33.4883V34.6836ZM88.8359 32.9961C88.8281 31.8398 88.5352 30.9453 87.957 30.3125C87.3867 29.6797 86.5156 29.3633 85.3438 29.3633C84.1641 29.3633 83.2227 29.7109 82.5195 30.4062C81.8242 31.1016 81.4297 31.9648 81.3359 32.9961H88.8359ZM105.277 34.6836H95.6328C95.6328 35.4883 95.7539 36.1914 95.9961 36.793C96.2383 37.3867 96.5703 37.875 96.9922 38.2578C97.3984 38.6328 97.8789 38.9141 98.4336 39.1016C98.9961 39.2891 99.6133 39.3828 100.285 39.3828C101.176 39.3828 102.07 39.207 102.969 38.8555C103.875 38.4961 104.52 38.1445 104.902 37.8008H105.02V40.2031C104.277 40.5156 103.52 40.7773 102.746 40.9883C101.973 41.1992 101.16 41.3047 100.309 41.3047C98.1367 41.3047 96.4414 40.7188 95.2227 39.5469C94.0039 38.3672 93.3945 36.6953 93.3945 34.5312C93.3945 32.3906 93.9766 30.6914 95.1406 29.4336C96.3125 28.1758 97.8516 27.5469 99.7578 27.5469C101.523 27.5469 102.883 28.0625 103.836 29.0938C104.797 30.125 105.277 31.5898 105.277 33.4883V34.6836ZM103.133 32.9961C103.125 31.8398 102.832 30.9453 102.254 30.3125C101.684 29.6797 100.812 29.3633 99.6406 29.3633C98.4609 29.3633 97.5195 29.7109 96.8164 30.4062C96.1211 31.1016 95.7266 31.9648 95.6328 32.9961H103.133ZM120.137 34.2969C120.137 35.3594 119.984 36.332 119.68 37.2148C119.375 38.0898 118.945 38.832 118.391 39.4414C117.875 40.0195 117.266 40.4688 116.562 40.7891C115.867 41.1016 115.129 41.2578 114.348 41.2578C113.668 41.2578 113.051 41.1836 112.496 41.0352C111.949 40.8867 111.391 40.6562 110.82 40.3438V45.8281H108.617V27.9102H110.82V29.2812C111.406 28.7891 112.062 28.3789 112.789 28.0508C113.523 27.7148 114.305 27.5469 115.133 27.5469C116.711 27.5469 117.938 28.1445 118.812 29.3398C119.695 30.5273 120.137 32.1797 120.137 34.2969ZM117.863 34.3555C117.863 32.7773 117.594 31.5977 117.055 30.8164C116.516 30.0352 115.688 29.6445 114.57 29.6445C113.938 29.6445 113.301 29.7812 112.66 30.0547C112.02 30.3281 111.406 30.6875 110.82 31.1328V38.5508C111.445 38.832 111.98 39.0234 112.426 39.125C112.879 39.2266 113.391 39.2773 113.961 39.2773C115.188 39.2773 116.145 38.8633 116.832 38.0352C117.52 37.207 117.863 35.9805 117.863 34.3555ZM146.926 32.293C146.926 33.8789 146.578 35.3164 145.883 36.6055C145.195 37.8945 144.277 38.8945 143.129 39.6055C142.332 40.0977 141.441 40.4531 140.457 40.6719C139.48 40.8906 138.191 41 136.59 41H132.184V23.5508H136.543C138.246 23.5508 139.598 23.6758 140.598 23.9258C141.605 24.168 142.457 24.5039 143.152 24.9336C144.34 25.6758 145.266 26.6641 145.93 27.8984C146.594 29.1328 146.926 30.5977 146.926 32.293ZM144.5 32.2578C144.5 30.8906 144.262 29.7383 143.785 28.8008C143.309 27.8633 142.598 27.125 141.652 26.5859C140.965 26.1953 140.234 25.9258 139.461 25.7773C138.688 25.6211 137.762 25.543 136.684 25.543H134.504V39.0078H136.684C137.801 39.0078 138.773 38.9258 139.602 38.7617C140.438 38.5977 141.203 38.293 141.898 37.8477C142.766 37.293 143.414 36.5625 143.844 35.6562C144.281 34.75 144.5 33.6172 144.5 32.2578ZM161.656 34.4609C161.656 36.5938 161.109 38.2773 160.016 39.5117C158.922 40.7461 157.457 41.3633 155.621 41.3633C153.77 41.3633 152.297 40.7461 151.203 39.5117C150.117 38.2773 149.574 36.5938 149.574 34.4609C149.574 32.3281 150.117 30.6445 151.203 29.4102C152.297 28.168 153.77 27.5469 155.621 27.5469C157.457 27.5469 158.922 28.168 160.016 29.4102C161.109 30.6445 161.656 32.3281 161.656 34.4609ZM159.383 34.4609C159.383 32.7656 159.051 31.5078 158.387 30.6875C157.723 29.8594 156.801 29.4453 155.621 29.4453C154.426 29.4453 153.496 29.8594 152.832 30.6875C152.176 31.5078 151.848 32.7656 151.848 34.4609C151.848 36.1016 152.18 37.3477 152.844 38.1992C153.508 39.043 154.434 39.4648 155.621 39.4648C156.793 39.4648 157.711 39.0469 158.375 38.2109C159.047 37.3672 159.383 36.1172 159.383 34.4609ZM167.445 25.7188H164.961V23.4336H167.445V25.7188ZM167.305 41H165.102V27.9102H167.305V41ZM182.609 41H180.406V33.5469C180.406 32.9453 180.371 32.3828 180.301 31.8594C180.23 31.3281 180.102 30.9141 179.914 30.6172C179.719 30.2891 179.438 30.0469 179.07 29.8906C178.703 29.7266 178.227 29.6445 177.641 29.6445C177.039 29.6445 176.41 29.793 175.754 30.0898C175.098 30.3867 174.469 30.7656 173.867 31.2266V41H171.664V27.9102H173.867V29.3633C174.555 28.793 175.266 28.3477 176 28.0273C176.734 27.707 177.488 27.5469 178.262 27.5469C179.676 27.5469 180.754 27.9727 181.496 28.8242C182.238 29.6758 182.609 30.9023 182.609 32.5039V41ZM197.469 39.5117C197.469 41.7305 196.965 43.3594 195.957 44.3984C194.949 45.4375 193.398 45.957 191.305 45.957C190.609 45.957 189.93 45.9062 189.266 45.8047C188.609 45.7109 187.961 45.5742 187.32 45.3945V43.1445H187.438C187.797 43.2852 188.367 43.457 189.148 43.6602C189.93 43.8711 190.711 43.9766 191.492 43.9766C192.242 43.9766 192.863 43.8867 193.355 43.707C193.848 43.5273 194.23 43.2773 194.504 42.957C194.777 42.6523 194.973 42.2852 195.09 41.8555C195.207 41.4258 195.266 40.9453 195.266 40.4141V39.2188C194.602 39.75 193.965 40.1484 193.355 40.4141C192.754 40.6719 191.984 40.8008 191.047 40.8008C189.484 40.8008 188.242 40.2383 187.32 39.1133C186.406 37.9805 185.949 36.3867 185.949 34.332C185.949 33.207 186.105 32.2383 186.418 31.4258C186.738 30.6055 187.172 29.8984 187.719 29.3047C188.227 28.75 188.844 28.3203 189.57 28.0156C190.297 27.7031 191.02 27.5469 191.738 27.5469C192.496 27.5469 193.129 27.625 193.637 27.7812C194.152 27.9297 194.695 28.1602 195.266 28.4727L195.406 27.9102H197.469V39.5117ZM195.266 37.4023V30.2656C194.68 30 194.133 29.8125 193.625 29.7031C193.125 29.5859 192.625 29.5273 192.125 29.5273C190.914 29.5273 189.961 29.9336 189.266 30.7461C188.57 31.5586 188.223 32.7383 188.223 34.2852C188.223 35.7539 188.48 36.8672 188.996 37.625C189.512 38.3828 190.367 38.7617 191.562 38.7617C192.203 38.7617 192.844 38.6406 193.484 38.3984C194.133 38.1484 194.727 37.8164 195.266 37.4023ZM216.57 41H209.68V39.2188H211.965V25.332H209.68V23.5508H216.57V25.332H214.285V39.2188H216.57V41ZM232.965 25.6133H226.73V41H224.41V25.6133H218.176V23.5508H232.965V25.6133Z" fill="#0284C7"/>
</g>
<defs>
<filter id="filter0_d_0_1" x="6.3125" y="6.3125" width="57.6255" height="54.375" filterUnits="userSpaceOnUse" color-interpolation-filters="sRGB">
<feFlood flood-opacity="0" result="BackgroundImageFix"/>
<feColorMatrix in="SourceAlpha" type="matrix" values="0 0 0 0 0 0 0 0 0 0 0 0 0 0 0 0 0 0 127 0" result="hardAlpha"/>
<feOffset dx="2" dy="2"/>
<feGaussianBlur stdDeviation="2"/>
<feComposite in2="hardAlpha" operator="out"/>
<feColorMatrix type="matrix" values="0 0 0 0 0 0 0 0 0 0 0 0 0 0 0 0 0 0 0.25 0"/>
<feBlend mode="normal" in2="BackgroundImageFix" result="effect1_dropShadow_0_1"/>
<feBlend mode="normal" in="SourceGraphic" in2="effect1_dropShadow_0_1" result="shape"/>
</filter>
<filter id="filter1_d_0_1" x="64.4375" y="23.4336" width="172.527" height="26.5234" filterUnits="userSpaceOnUse" color-interpolation-filters="sRGB">
<feFlood flood-opacity="0" result="BackgroundImageFix"/>
<feColorMatrix in="SourceAlpha" type="matrix" values="0 0 0 0 0 0 0 0 0 0 0 0 0 0 0 0 0 0 127 0" result="hardAlpha"/>
<feOffset dx="2" dy="2"/>
<feGaussianBlur stdDeviation="1"/>
<feComposite in2="hardAlpha" operator="out"/>
<feColorMatrix type="matrix" values="0 0 0 0 0 0 0 0 0 0 0 0 0 0 0 0 0 0 0.25 0"/>
<feBlend mode="normal" in2="BackgroundImageFix" result="effect1_dropShadow_0_1"/>
<feBlend mode="normal" in="SourceGraphic" in2="effect1_dropShadow_0_1" result="shape"/>
</filter>
<clipPath id="clip0_0_1">
<rect width="53" height="53" fill="white" transform="translate(5 5)"/>
</clipPath>
</defs>
</svg>
